<?xml version="1.0" encoding="UTF-8"?>
<!DOCTYPE svg PUBLIC "-//W3C//DTD SVG 1.1//EN" "http://www.w3.org/Graphics/SVG/1.1/DTD/svg11.dtd">
<!-- Creator: CorelDRAW -->
<svg xmlns="http://www.w3.org/2000/svg" xml:space="preserve" width="512px" height="512px" version="1.1" style="shape-rendering:geometricPrecision; text-rendering:geometricPrecision; image-rendering:optimizeQuality; fill-rule:evenodd; clip-rule:evenodd"
viewBox="0 0 512 512"
 xmlns:xlink="http://www.w3.org/1999/xlink"
 xmlns:xodm="http://www.corel.com/coreldraw/odm/2003">
 <defs>
  <style type="text/css">
   <![CDATA[
    .fil0 {fill:url(#id0)}
   ]]>
  </style>
  <linearGradient id="id0" gradientUnits="userSpaceOnUse" x1="255.996" y1="-0.012" x2="255.996" y2="512.011">
   <stop offset="0" style="stop-opacity:1; stop-color:#5CC6D0"/>
   <stop offset="0.490196" style="stop-opacity:1; stop-color:#A53692"/>
   <stop offset="1" style="stop-opacity:1; stop-color:#F06277"/>
  </linearGradient>
 </defs>
 <g id="Layer_x0020_1">
  <metadata id="CorelCorpID_0Corel-Layer"/>
  <path class="fil0" d="M405.45 54.913c-7,0 -14.1,-2.7 -19.4,-8 -3.299,-3.299 -5.579,-7.244 -6.844,-11.436 -68.628,7.373 -154.647,55.727 -226.356,127.436 -79.9,79.9 -129.3,173.8 -129,245.099 0.1,28.2 8.2,50.4 24.001,66 0,0 0.1,0.1 0.1,0.1 15.5,15.8 37.699,23.9 65.999,24 0.2,0 0.4,0 0.6,0 71.2,0 164.8,-49.4 244.5,-128.999 79.9,-79.9 129.3,-173.8 129,-245.1 -0.1,-28.2 -8.2,-50.4 -24,-66 -0.1,-0.1 -0.2,-0.2 -0.3,-0.3 -7.915,-8.689 -18.79,-14.935 -33.135,-19.058 -1.328,3 -3.215,5.808 -5.665,8.258 -5.4,5.3 -12.5,8 -19.5,8zm-26.761 -33.487c1.095,-4.924 3.548,-9.6 7.361,-13.413 10.7,-10.7 28.2,-10.7 38.9,0 4.648,4.648 7.276,10.579 7.885,16.678 17.559,4.799 31.097,12.51 41.115,23.422 18.2,18 27.9,44.2 28.1,75.8 0.2,36.2 -11.9,78.8 -34.9,123.3 -23.4,45.4 -57.4,90.9 -98.2,131.7 -40.8,40.8 -86.4,74.8 -131.699,98.2 -44.301,22.799 -86.701,34.899 -122.701,34.899 -0.2,0 -0.4,0 -0.7,0 -31.6,-0.1 -57.899,-9.9 -75.8,-28.1 -18.3,-18 -28,-44.2 -28.1,-75.8 -0.2,-36.2 11.801,-78.9 34.8,-123.4 23.4,-45.399 57.4,-90.899 98.2,-131.699 38.1,-38.1 80.8,-70.5 123.5,-93.6 39.462,-21.387 78.118,-34.444 112.239,-37.987zm13.196 5.432c0.029,0.183 0.05,0.368 0.065,0.555 0.033,0.423 0.027,0.839 -0.013,1.245 0.29,3.007 1.595,5.937 3.913,8.255 5.3,5.3 13.8,5.3 19.1,0 1.463,-1.463 2.522,-3.171 3.177,-4.988 -0.316,-1.107 -0.362,-2.309 -0.077,-3.512 0.162,-0.77 0.448,-1.483 0.832,-2.122 -0.246,-3.085 -1.557,-6.103 -3.932,-8.478 -2.6,-2.6 -6,-3.9 -9.5,-3.9 -3.5,0 -6.9,1.3 -9.6,3.9 -2.521,2.52 -3.842,5.765 -3.965,9.045zm-214.582 382.533c42.62,-4.632 96.152,-34.884 141.747,-80.479 49.2,-49.2 80.7,-109.099 80.4,-152.699 -0.1,-16.9 -4.9,-30.2 -14.4,-39.4 0,0 -0.1,-0.1 -0.1,-0.1 -9.2,-9.4 -22.4,-14.3 -39.4,-14.4 -0.2,0 -0.4,0 -0.6,0 -43.5,0 -103.1,31.5 -152.1,80.4 -49.2,49.2 -80.7,109.099 -80.4,152.699 0.1,16.9 4.9,30.2 14.4,39.4 0.3,0.3 0.5,0.5 0.7,0.8 0.813,1.072 1.612,1.939 2.458,2.686 0.631,-0.79 1.311,-1.554 2.042,-2.286 10.8,-10.8 27.1,-10.8 37.9,0 3.804,3.804 6.254,8.468 7.353,13.379zm-52.997 2.122c-2.729,-1.767 -5.215,-3.933 -7.656,-7.101 -11.8,-11.7 -18.1,-28.6 -18.2,-48.9 -0.3,-47.9 32.1,-110.199 84.5,-162.699 52.5,-52.5 114.8,-84.9 162.699,-84.5 20.5,0.1 37.5,6.5 49.2,18.5 12,11.7 18.4,28.7 18.5,49.2 0.3,47.9 -32.1,110.2 -84.499,162.699 -25.1,25.1 -53.1,46.3 -80.8,61.1 -25.076,13.411 -49.562,21.506 -71.209,23.51 -1.255,4.25 -3.552,8.251 -6.891,11.59 -5.5,5.4 -12.2,8.1 -19,8.1 -6.8,0 -13.5,-2.7 -18.9,-8.1 -6.352,-6.351 -8.933,-15.1 -7.744,-23.399zm94.344 -76.101c-9.3,0 -17.4,-2.7 -23.4,-8.4 -0.1,-0.1 -0.2,-0.2 -0.4,-0.4 -13.631,-14.766 -10.234,-42.525 8.232,-70.214 -7.616,-10.724 -6.628,-25.789 2.968,-35.385 9.322,-9.323 23.805,-10.522 34.456,-3.601 29.544,-22.255 60.336,-27.571 76.244,-12.8 0.1,0.1 0.2,0.201 0.3,0.3 18.1,19.3 6,59.6 -28.2,93.7 -23.4,23.7 -49.8,36.8 -70.2,36.8zm-2.441 -85.154c0.257,0.195 0.498,0.404 0.721,0.626 5.319,4.305 13.067,3.982 18.02,-0.971 4.626,-4.626 5.214,-11.688 1.766,-16.935 -0.806,-0.428 -1.545,-1.02 -2.166,-1.766 -0.424,-0.508 -0.761,-1.057 -1.015,-1.63 -2.362,-1.78 -5.19,-2.669 -8.085,-2.669 -3.5,0 -6.9,1.3 -9.6,3.899 -5.3,5.3 -5.3,13.8 0,19.101 0.118,0.118 0.238,0.232 0.359,0.345zm-2.271 15.135c-13.633,21.001 -17.463,42.031 -8.988,51.519 11.7,10.6 44.1,1.9 74.1,-28 29.9,-29.9 38.6,-62.399 28,-74.099 -10.456,-9.346 -34.181,-3.707 -57.076,13.109 5.27,10.337 3.596,23.37 -5.024,31.99 -5.4,5.3 -12.5,8 -19.5,8 -3.917,0 -7.865,-0.845 -11.512,-2.519zm-62.988 136.519c-3.2,0 -6.4,1.3 -9.1,3.9 -5.3,5.3 -5.3,13.8 0,19.1 5.2,5.2 12.9,5.2 18.1,0 5.3,-5.3 5.3,-13.8 0,-19.1 -2.6,-2.599 -5.8,-3.9 -9,-3.9z"/>
 </g>
</svg>
